<?xml version="1.0" encoding="iso-8859-1"?>
<!-- Uploaded to: SVG Repo, www.svgrepo.com, Generator: SVG Repo Mixer Tools -->
<svg version="1.1" id="Layer_1" xmlns="http://www.w3.org/2000/svg" xmlns:xlink="http://www.w3.org/1999/xlink" 
	 viewBox="0 0 512 512" xml:space="preserve">
<g>
	<polygon style="fill:#004FAC;" points="411.826,345.043 411.826,311.652 322.783,311.652 322.783,345.043 289.391,345.043 
		289.391,378.435 233.739,378.435 233.739,345.043 200.348,345.043 200.348,311.652 166.957,311.652 166.957,278.261 
		133.565,278.261 133.565,222.609 166.957,222.609 166.957,189.217 200.348,189.217 200.348,100.174 166.957,100.174 
		166.957,66.783 33.391,66.783 33.391,100.174 0,100.174 0,278.261 33.391,278.261 33.391,345.043 66.783,345.043 66.783,378.435 
		100.174,378.435 100.174,411.826 133.565,411.826 133.565,445.217 166.957,445.217 166.957,478.609 233.739,478.609 233.739,512 
		411.826,512 411.826,478.609 445.217,478.609 445.217,345.043 	"/>
	<rect x="244.87" y="100.174" style="fill:#004FAC;" width="66.783" height="33.391"/>
	<rect x="311.652" y="133.565" style="fill:#004FAC;" width="33.391" height="33.391"/>
	<rect x="378.435" y="200.348" style="fill:#004FAC;" width="33.391" height="66.783"/>
	<rect x="345.043" y="166.957" style="fill:#004FAC;" width="33.391" height="33.391"/>
	<rect x="200.348" style="fill:#004FAC;" width="111.304" height="33.391"/>
	<rect x="378.435" y="66.783" style="fill:#004FAC;" width="33.391" height="33.391"/>
	<rect x="478.609" y="200.348" style="fill:#004FAC;" width="33.391" height="144.696"/>
	<rect x="411.826" y="100.174" style="fill:#004FAC;" width="33.391" height="33.391"/>
	<rect x="445.217" y="133.565" style="fill:#004FAC;" width="33.391" height="66.783"/>
	<rect x="311.652" y="33.391" style="fill:#004FAC;" width="66.783" height="33.391"/>
</g>
<g>
	<polygon style="fill:#FFFFFF;" points="166.957,100.174 166.957,66.783 133.565,66.783 133.565,100.174 133.565,133.565 
		166.957,133.565 200.348,133.565 200.348,100.174 	"/>
	<polygon style="fill:#FFFFFF;" points="322.783,311.652 322.783,345.043 289.391,345.043 289.391,378.435 322.783,378.435 
		356.174,378.435 356.174,345.043 356.174,311.652 	"/>
</g>
<rect x="66.783" y="345.043" width="33.391" height="33.391"/>
<rect x="100.174" y="378.435" width="33.391" height="33.391"/>
<rect x="133.565" y="411.826" width="33.391" height="33.391"/>
<rect x="166.957" y="445.217" width="66.783" height="33.391"/>
<rect x="33.391" y="278.261" width="33.391" height="66.783"/>
<rect y="100.174" width="33.391" height="178.087"/>
<rect x="233.739" y="478.609" width="178.087" height="33.391"/>
<rect x="33.391" y="66.783" width="133.565" height="33.391"/>
<rect x="411.826" y="345.043" width="33.391" height="133.565"/>
<rect x="166.957" y="100.174" width="33.391" height="89.043"/>
<rect x="322.783" y="311.652" width="89.043" height="33.391"/>
<rect x="133.565" y="189.217" width="33.391" height="33.391"/>
<rect x="289.391" y="345.043" width="33.391" height="33.391"/>
<rect x="100.174" y="222.609" width="33.391" height="55.652"/>
<rect x="233.739" y="378.435" width="55.652" height="33.391"/>
<rect x="133.565" y="278.261" width="33.391" height="33.391"/>
<rect x="166.957" y="311.652" width="33.391" height="33.391"/>
<rect x="200.348" y="345.043" width="33.391" height="33.391"/>
<rect x="244.87" y="100.174" width="66.783" height="33.391"/>
<rect x="311.652" y="133.565" width="33.391" height="33.391"/>
<rect x="378.435" y="200.348" width="33.391" height="66.783"/>
<rect x="345.043" y="166.957" width="33.391" height="33.391"/>
<rect x="200.348" width="111.304" height="33.391"/>
<rect x="378.435" y="66.783" width="33.391" height="33.391"/>
<rect x="478.609" y="200.348" width="33.391" height="144.696"/>
<rect x="411.826" y="100.174" width="33.391" height="33.391"/>
<rect x="445.217" y="133.565" width="33.391" height="66.783"/>
<rect x="311.652" y="33.391" width="66.783" height="33.391"/>
</svg>